
        <svg
          version="1.0"
          xmlns="http://www.w3.org/2000/svg"
          width="50"
          height="50"
          aria-hidden="false"

          viewBox="150 -170 600 252"
          preserveAspectRatio="xMidYMid meet"
        >
          <g
            transform="translate(0.000000,512.000000) scale(0.180000,-0.180000)"
            fill="#FFFFFF"
            stroke="none"
          >
            <path
              d="M2345 3680 c-68 -14 -201 -65 -261 -101 -85 -49 -233 -199 -283 -286
-41 -71 -42 -72 -89 -77 -170 -21 -283 -70 -382 -169 -119 -118 -170 -231
-177 -392 -8 -172 39 -310 147 -428 70 -76 137 -123 235 -163 l70 -29 929 -3
c655 -2 946 1 984 9 29 6 93 31 141 55 166 83 280 235 318 423 14 73 15 96 4
170 -29 202 -148 374 -321 461 -54 27 -56 30 -78 97 -53 165 -184 294 -359
352 -71 24 -223 29 -298 10 -40 -10 -51 -8 -119 20 -41 17 -107 38 -146 46
-75 16 -247 18 -315 5z m341 -225 c39 -13 95 -38 125 -56 l53 -31 61 21 c90
32 142 36 216 17 158 -41 269 -183 269 -346 0 -49 9 -60 50 -60 75 0 212 -95
263 -183 114 -194 43 -436 -158 -540 -59 -31 -62 -32 -227 -35 l-168 -4 0 83
0 83 62 63 62 63 64 0 c54 0 69 -4 94 -25 39 -33 73 -32 109 4 32 32 35 47 18
84 -24 52 -88 61 -129 17 -26 -28 -33 -30 -102 -30 l-73 0 -77 -73 -78 -73 0
-97 0 -97 -65 0 -65 0 0 126 0 126 87 94 c77 85 90 94 121 94 75 0 110 83 57
135 -26 27 -51 31 -89 14 -29 -14 -51 -60 -43 -90 5 -17 -14 -43 -88 -123
l-95 -101 0 -137 0 -138 -65 0 -65 0 0 232 0 233 127 127 c112 113 132 128
161 128 22 0 41 8 57 25 71 70 -28 179 -106 116 -17 -14 -23 -29 -23 -62 -1
-43 -5 -48 -133 -177 l-133 -133 0 -244 0 -245 -60 0 -60 0 0 434 0 434 30 30
c33 34 38 66 14 100 -32 46 -97 48 -130 4 -22 -29 -17 -80 11 -106 l25 -23 0
-437 0 -436 -65 0 -65 0 0 268 0 268 -35 34 -35 34 0 134 c0 131 1 135 25 158
41 38 33 104 -16 129 -40 21 -57 19 -90 -14 -38 -38 -38 -74 1 -113 l30 -30 0
-142 0 -142 35 -34 35 -34 0 -258 0 -258 -63 0 -64 0 1 210 1 209 -60 61 c-51
52 -59 65 -57 93 7 76 -79 117 -133 62 -52 -51 -20 -127 55 -131 36 -1 49 -9
96 -55 l54 -54 -2 -200 -3 -200 -285 1 c-268 2 -288 3 -343 24 -190 72 -296
275 -241 461 60 201 263 322 464 276 36 -9 65 -15 65 -14 1 1 9 29 19 62 65
217 264 395 487 434 79 14 202 4 285 -24z m-297 -244 c15 -27 -9 -56 -37 -47
-21 7 -31 44 -15 59 13 13 42 7 52 -12z m251 4 c6 -8 10 -22 8 -32 -5 -25 -51
-25 -56 0 -8 42 23 63 48 32z m485 -175 c0 -18 -6 -26 -23 -28 -13 -2 -25 3
-28 12 -10 26 4 48 28 44 17 -2 23 -10 23 -28z m-1015 -195 c19 -23 8 -50 -20
-50 -16 0 -26 6 -28 18 -4 18 14 47 28 47 4 0 13 -7 20 -15z m1117 -66 c14
-14 5 -46 -14 -53 -29 -11 -58 36 -36 57 10 11 38 8 50 -4z m308 -219 c0 -18
-6 -26 -23 -28 -13 -2 -25 3 -28 12 -10 26 4 48 28 44 17 -2 23 -10 23 -28z"
            />
            <path
              d="M1575 2615 c-16 -15 -25 -36 -25 -55 0 -38 39 -80 74 -80 13 0 38 11
54 25 29 24 35 25 169 25 l139 0 49 -50 c49 -50 85 -64 85 -34 0 8 -24 42 -52
75 l-53 59 -157 0 c-99 0 -158 4 -158 10 0 6 -9 19 -20 30 -28 28 -75 26 -105
-5z m80 -55 c0 -18 -6 -26 -23 -28 -24 -4 -38 18 -28 44 3 9 15 14 28 12 17
-2 23 -10 23 -28z"
            />
            <path
              d="M1441 1801 c-107 -57 -106 -232 2 -282 51 -23 118 -24 158 -4 29 16
30 17 27 83 l-3 67 -47 3 c-46 3 -48 2 -48 -23 0 -14 7 -28 15 -31 8 -4 15
-15 15 -25 0 -15 -7 -19 -34 -19 -48 0 -65 8 -81 41 -43 82 17 158 109 137 34
-8 43 -6 53 8 19 26 16 32 -17 49 -39 20 -107 18 -149 -4z"
            />
            <path
              d="M1911 1802 c-64 -32 -98 -110 -82 -185 20 -85 77 -123 171 -114 92
10 91 9 88 91 l-3 71 -45 0 c-36 0 -45 -4 -48 -19 -2 -11 4 -25 13 -32 27 -20
11 -44 -28 -44 -71 0 -104 93 -55 155 20 26 24 27 84 22 50 -5 63 -3 68 9 10
26 7 33 -24 49 -39 20 -97 19 -139 -3z"
            />
            <path
              d="M2242 1783 c-38 -74 -122 -263 -122 -273 0 -5 13 -10 30 -10 23 0 33
7 45 30 15 28 19 30 74 30 56 0 59 -1 71 -30 10 -23 19 -30 41 -30 15 0 30 4
33 8 6 10 -129 305 -142 310 -6 2 -20 -14 -30 -35z m43 -119 c21 -50 20 -54
-19 -54 l-35 0 16 45 c8 25 17 45 19 45 2 0 11 -16 19 -36z"
            />
            <path
              d="M2485 1808 c-32 -17 -45 -39 -45 -77 1 -45 14 -62 75 -98 33 -19 50
-36 50 -49 0 -25 -44 -30 -84 -10 -40 21 -41 21 -41 -19 0 -41 23 -55 90 -55
51 0 85 16 99 47 24 52 6 90 -61 129 -54 32 -71 53 -58 73 5 9 18 12 41 7 66
-13 74 -12 77 10 6 40 -94 69 -143 42z"
            />
            <path
              d="M2672 1811 c-8 -4 -12 -19 -10 -32 2 -20 10 -25 41 -27 l37 -3 0
-125 0 -125 33 3 32 3 -4 122 -3 122 37 3 c45 4 66 28 46 52 -11 13 -34 16
-105 16 -50 0 -97 -4 -104 -9z"
            />
            <path
              d="M2983 1804 c-49 -25 -77 -77 -78 -144 0 -67 19 -106 65 -138 29 -20
44 -23 92 -20 88 6 138 63 138 155 0 56 -24 108 -62 136 -36 27 -114 32 -155
11z m113 -62 c34 -23 44 -94 19 -142 -43 -83 -162 -16 -139 80 11 50 32 70 72
70 20 0 42 -4 48 -8z"
            />
            <path
              d="M3269 1808 c-18 -7 -19 -16 -17 -155 l3 -148 30 0 c30 0 30 1 33 58
4 74 19 74 69 0 37 -56 59 -71 88 -59 12 4 7 18 -20 62 l-34 57 25 29 c50 60
17 157 -53 159 -15 0 -45 1 -66 2 -21 1 -47 -1 -58 -5z m131 -77 c13 -25 13
-27 -6 -45 -8 -9 -29 -16 -45 -16 -27 0 -29 2 -29 40 0 39 1 40 35 40 24 0 37
-6 45 -19z"
            />
            <path
              d="M3588 1812 l-48 -3 0 -155 0 -155 98 3 97 3 0 30 c0 30 0 30 -66 33
l-65 3 4 29 c4 29 6 30 59 30 53 0 54 0 51 28 -3 25 -7 27 -58 32 -51 5 -55 7
-58 33 l-3 27 71 0 71 0 -3 32 c-3 31 -4 32 -53 32 -27 1 -71 0 -97 -2z"
            />
            <path
              d="M1690 1655 l0 -155 35 0 35 0 0 155 0 155 -35 0 -35 0 0 -155z"
            />
          </g>
        </svg>